HIERARCHY
ROOT Hips
{
  OFFSET 76.347 92.6806 -49.6304
  CHANNELS 6 Xposition Yposition Zposition Zrotation Xrotation Yrotation
  JOINT RightUpLeg
  {
    OFFSET -9.2536 -1.56971 -0.009835
    CHANNELS 3 Zrotation Xrotation Yrotation
    JOINT RightLeg
    {
      OFFSET 0.003613 -41.8721 0.033096
      CHANNELS 3 Zrotation Xrotation Yrotation
      JOINT RightFoot
      {
        OFFSET 0.190023 -41.7536 -0.162077
        CHANNELS 3 Zrotation Xrotation Yrotation
        End Site
        {
          OFFSET 0 -7.69 17.5
        }
      }
    }
  }
  JOINT LeftUpLeg
  {
    OFFSET 9.25993 -1.60807 -0.003591
    CHANNELS 3 Zrotation Xrotation Yrotation
    JOINT LeftLeg
    {
      OFFSET 0.056181 -41.8768 -0.046918
      CHANNELS 3 Zrotation Xrotation Yrotation
      JOINT LeftFoot
      {
        OFFSET 0.206009 -42.0177 -0.454554
        CHANNELS 3 Zrotation Xrotation Yrotation
        End Site
        {
          OFFSET 0 -7.69 17.5
        }
      }
    }
  }
  JOINT Spine
  {
    OFFSET 0.055174 14.3087 0.014143
    CHANNELS 3 Zrotation Xrotation Yrotation
    JOINT Spine1
    {
      OFFSET 0.013927 9.70629 0.00545
      CHANNELS 3 Zrotation Xrotation Yrotation
      JOINT Spine2
      {
        OFFSET 0.014023 10.1242 0.014512
        CHANNELS 3 Zrotation Xrotation Yrotation
        JOINT Spine3
        {
          OFFSET 0.012086 9.7191 0.009001
          CHANNELS 3 Zrotation Xrotation Yrotation
          JOINT Neck
          {
            OFFSET 0.131707 10.3859 0.054297
            CHANNELS 3 Zrotation Xrotation Yrotation
            JOINT Head
            {
              OFFSET -0.005552 9.48088 0.122183
              CHANNELS 3 Zrotation Xrotation Yrotation
              End Site
              {
                OFFSET 0 15.95 0
              }
            }
          }
          JOINT RightShoulder
          {
            OFFSET -3.20137 6.92944 0.018295
            CHANNELS 3 Zrotation Xrotation Yrotation
            JOINT RightArm
            {
              OFFSET -12.7595 0.009634 0.00435
              CHANNELS 3 Zrotation Xrotation Yrotation
              JOINT RightForeArm
              {
                OFFSET -26.5076 -0.004773 -0.015002
                CHANNELS 3 Zrotation Xrotation Yrotation
                JOINT RightHand
                {
                  OFFSET -26.002 -5.9e-05 -0.011656
                  CHANNELS 3 Zrotation Xrotation Yrotation
                  JOINT RightHandThumb1
                  {
                    OFFSET -2.48905 0.190105 3.12053
                    CHANNELS 3 Zrotation Xrotation Yrotation
                    JOINT RightHandThumb2
                    {
                      OFFSET -3.68274 0 0
                      CHANNELS 3 Zrotation Xrotation Yrotation
                      JOINT RightHandThumb3
                      {
                        OFFSET -2.55832 0 0
                        CHANNELS 3 Zrotation Xrotation Yrotation
                        End Site
                        {
                          OFFSET -2.194 0 0
                        }
                      }
                    }
                  }
                  JOINT RightInHandIndex
                  {
                    OFFSET -3.22368 0.508421 1.97842
                    CHANNELS 3 Zrotation Xrotation Yrotation
                    JOINT RightHandIndex1
                    {
                      OFFSET -5.21684 -0.091368 0.999158
                      CHANNELS 3 Zrotation Xrotation Yrotation
                      JOINT RightHandIndex2
                      {
                        OFFSET -3.61937 0 0
                        CHANNELS 3 Zrotation Xrotation Yrotation
                        JOINT RightHandIndex3
                        {
                          OFFSET -2.0521 0 0
                          CHANNELS 3 Zrotation Xrotation Yrotation
                          End Site
                          {
                            OFFSET -1.805 0 0
                          }
                        }
                      }
                    }
                  }
                  JOINT RightInHandMiddle
                  {
                    OFFSET -3.38211 0.517263 0.756737
                    CHANNELS 3 Zrotation Xrotation Yrotation
                    JOINT RightHandMiddle1
                    {
                      OFFSET -5.17411 -0.084 0.313895
                      CHANNELS 3 Zrotation Xrotation Yrotation
                      JOINT RightHandMiddle2
                      {
                        OFFSET -3.94947 0 0
                        CHANNELS 3 Zrotation Xrotation Yrotation
                        JOINT RightHandMiddle3
                        {
                          OFFSET -2.47579 0 0
                          CHANNELS 3 Zrotation Xrotation Yrotation
                          End Site
                          {
                            OFFSET -1.975 0 0
                          }
                        }
                      }
                    }
                  }
                  JOINT RightInHandRing
                  {
                    OFFSET -3.36516 0.537895 -0.128947
                    CHANNELS 3 Zrotation Xrotation Yrotation
                    JOINT RightHandRing1
                    {
                      OFFSET -4.63474 -0.022105 -0.478947
                      CHANNELS 3 Zrotation Xrotation Yrotation
                      JOINT RightHandRing2
                      {
                        OFFSET -3.44238 0 0
                        CHANNELS 3 Zrotation Xrotation Yrotation
                        JOINT RightHandRing3
                        {
                          OFFSET -2.3881 0 0
                          CHANNELS 3 Zrotation Xrotation Yrotation
                          End Site
                          {
                            OFFSET -1.857 0 0
                          }
                        }
                      }
                    }
                  }
                  JOINT RightInHandPinky
                  {
                    OFFSET -3.16105 0.469368 -1.20179
                    CHANNELS 3 Zrotation Xrotation Yrotation
                    JOINT RightHandPinky1
                    {
                      OFFSET -4.14105 -0.022105 -1.09053
                      CHANNELS 3 Zrotation Xrotation Yrotation
                      JOINT RightHandPinky2
                      {
                        OFFSET -2.75653 0 0
                        CHANNELS 3 Zrotation Xrotation Yrotation
                        JOINT RightHandPinky3
                        {
                          OFFSET -1.74189 0 0
                          CHANNELS 3 Zrotation Xrotation Yrotation
                          End Site
                          {
                            OFFSET -1.645 0 0
                          }
                        }
                      }
                    }
                  }
                }
              }
            }
          }
          JOINT LeftShoulder
          {
            OFFSET 3.20143 6.91127 -0.000395
            CHANNELS 3 Zrotation Xrotation Yrotation
            JOINT LeftArm
            {
              OFFSET 12.7779 -0.028682 -0.037301
              CHANNELS 3 Zrotation Xrotation Yrotation
              JOINT LeftForeArm
              {
                OFFSET 26.4982 -0.116492 -0.017681
                CHANNELS 3 Zrotation Xrotation Yrotation
                JOINT LeftHand
                {
                  OFFSET 26.0046 -0.058588 -0.01331
                  CHANNELS 3 Zrotation Xrotation Yrotation
                  JOINT LeftHandThumb1
                  {
                    OFFSET 2.48905 0.190105 3.12053
                    CHANNELS 3 Zrotation Xrotation Yrotation
                    JOINT LeftHandThumb2
                    {
                      OFFSET 3.68274 0 0
                      CHANNELS 3 Zrotation Xrotation Yrotation
                      JOINT LeftHandThumb3
                      {
                        OFFSET 2.55832 0 0
                        CHANNELS 3 Zrotation Xrotation Yrotation
                        End Site
                        {
                          OFFSET 2.194 0 0
                        }
                      }
                    }
                  }
                  JOINT LeftInHandIndex
                  {
                    OFFSET 3.22368 0.508421 1.97842
                    CHANNELS 3 Zrotation Xrotation Yrotation
                    JOINT LeftHandIndex1
                    {
                      OFFSET 5.21684 -0.091368 0.999158
                      CHANNELS 3 Zrotation Xrotation Yrotation
                      JOINT LeftHandIndex2
                      {
                        OFFSET 3.61937 0 0
                        CHANNELS 3 Zrotation Xrotation Yrotation
                        JOINT LeftHandIndex3
                        {
                          OFFSET 2.0521 0 0
                          CHANNELS 3 Zrotation Xrotation Yrotation
                          End Site
                          {
                            OFFSET 1.805 0 0
                          }
                        }
                      }
                    }
                  }
                  JOINT LeftInHandMiddle
                  {
                    OFFSET 3.38211 0.517263 0.756737
                    CHANNELS 3 Zrotation Xrotation Yrotation
                    JOINT LeftHandMiddle1
                    {
                      OFFSET 5.17411 -0.084 0.313895
                      CHANNELS 3 Zrotation Xrotation Yrotation
                      JOINT LeftHandMiddle2
                      {
                        OFFSET 3.94947 0 0
                        CHANNELS 3 Zrotation Xrotation Yrotation
                        JOINT LeftHandMiddle3
                        {
                          OFFSET 2.47579 0 0
                          CHANNELS 3 Zrotation Xrotation Yrotation
                          End Site
                          {
                            OFFSET 1.975 0 0
                          }
                        }
                      }
                    }
                  }
                  JOINT LeftInHandRing
                  {
                    OFFSET 3.36516 0.537895 -0.128947
                    CHANNELS 3 Zrotation Xrotation Yrotation
                    JOINT LeftHandRing1
                    {
                      OFFSET 4.63474 -0.022105 -0.478947
                      CHANNELS 3 Zrotation Xrotation Yrotation
                      JOINT LeftHandRing2
                      {
                        OFFSET 3.44238 0 0
                        CHANNELS 3 Zrotation Xrotation Yrotation
                        JOINT LeftHandRing3
                        {
                          OFFSET 2.3881 0 0
                          CHANNELS 3 Zrotation Xrotation Yrotation
                          End Site
                          {
                            OFFSET 1.857 0 0
                          }
                        }
                      }
                    }
                  }
                  JOINT LeftInHandPinky
                  {
                    OFFSET 3.16105 0.469368 -1.20179
                    CHANNELS 3 Zrotation Xrotation Yrotation
                    JOINT LeftHandPinky1
                    {
                      OFFSET 4.14105 -0.022105 -1.09053
                      CHANNELS 3 Zrotation Xrotation Yrotation
                      JOINT LeftHandPinky2
                      {
                        OFFSET 2.75653 0 0
                        CHANNELS 3 Zrotation Xrotation Yrotation
                        JOINT LeftHandPinky3
                        {
                          OFFSET 1.74189 0 0
                          CHANNELS 3 Zrotation Xrotation Yrotation
                          End Site
                          {
                            OFFSET 1.645 0 0
                          }
                        }
                      }
                    }
                  }
                }
              }
            }
          }
        }
      }
    }
  }
}
MOTION
Frames: 3
Frame Time: 0.00833333
4.500000197985618229e+02 1.615853348733383744e-03 3.467728566455387587e-03 -1.179317194046554385e-02 1.328708866625626789e-03 -1.307709864753962489e-02 2.072222705011337370e-03 -6.536324957569137305e-04 1.050516287416628121e-02 -1.470939386768496887e-03 1.245425390891741375e-02 -7.280781470290957277e-03 2.368933192314206723e-02 8.985593878616969163e-03 1.112531345769660583e-02 -1.569619392028348548e-02 4.945500112253016153e-03 2.500239222728593488e-02 1.702195546199777171e-02 4.929831595855445683e-03 -3.025685814628717440e-02 5.097463761311447038e-03 -1.357613698872749131e-02 5.808704391501445449e-03 -8.176808689263447352e-03 1.033981900626034650e-02 7.091971205898234092e-03 -1.939555150709578422e-03 1.368733636849463805e-03 7.608933141254299939e-04 -3.351801008687344853e-03 4.505039539199166831e-03 1.389907038859270524e-03 1.558120838104406754e-04 1.217168657459327999e-04 -1.236363230898701506e-03 1.031997843762440248e-02 -3.273760387731889515e-02 1.331290672172778973e-02 1.234339969539771480e-02 -7.208385262994202250e-03 5.438079028448689761e-03 -1.217932843270374058e-02 9.629985058499100289e-03 -5.418122847377693230e-03 1.408726925299187346e-02 -5.965257931030015087e-03 1.082929321595172897e-02 6.268411473811567880e-02 1.100053052241426431e-02 5.395679985429555764e-02 -1.457371971250773918e-02 2.617715338460592858e-02 1.801950139108897397e-02 0.000000000000000000e+00 0.000000000000000000e+00 0.000000000000000000e+00 2.898017680929672900e-16 3.883948435152922874e-15 0.000000000000000000e+00 2.252560170217709470e-15 -8.785987361902221411e-16 0.000000000000000000e+00 -1.791549363112089610e-15 -2.399029677365589455e-16 -3.775216695112522767e-15 0.000000000000000000e+00 0.000000000000000000e+00 0.000000000000000000e+00 0.000000000000000000e+00 -3.258676312634457204e-15 -1.028366158239560930e-15 0.000000000000000000e+00 -8.319156888800282430e-16 -9.686758594061206127e-16 -1.791549363112089610e-15 -2.399029677365589455e-16 -3.775216695112522767e-15 0.000000000000000000e+00 1.979584567592444321e-15 -5.919361815459732039e-15 0.000000000000000000e+00 8.379591063946337774e-16 -3.351044284312725382e-16 0.000000000000000000e+00 -5.036634429390353650e-16 -5.189982312920583513e-15 -1.791549363112089610e-15 -2.399029677365589455e-16 -3.775216695112522767e-15 0.000000000000000000e+00 0.000000000000000000e+00 0.000000000000000000e+00 0.000000000000000000e+00 -1.885193349424688830e-15 -5.695495177180670324e-16 0.000000000000000000e+00 -2.164425030826194592e-15 -8.306327562954602658e-15 -1.791549363112089610e-15 -2.399029677365589455e-16 -3.775216695112522767e-15 0.000000000000000000e+00 0.000000000000000000e+00 0.000000000000000000e+00 0.000000000000000000e+00 8.632251899436972274e-16 -4.909639008474598424e-16 0.000000000000000000e+00 -3.478235376152652333e-15 -1.053232972230391931e-14 -4.432647676712884142e-03 -1.508790824315623010e-02 -2.075452778725770525e-02 3.668216365714304511e-02 -2.440052839410807722e-02 -2.647800724908244696e-02 -1.654007524991012862e-02 -3.719662737396637470e-02 -1.909478578966181117e-02 -4.565732628979838476e-02 1.742630491518815800e-02 4.748663698348591644e-02 0.000000000000000000e+00 0.000000000000000000e+00 0.000000000000000000e+00 2.056573086293538707e-16 -2.244149041448689179e-15 0.000000000000000000e+00 8.495653088423786436e-16 -1.381266913036385996e-15 0.000000000000000000e+00 2.448147405887883682e-15 9.020030386799119855e-16 -1.979040400719320435e-16 0.000000000000000000e+00 0.000000000000000000e+00 0.000000000000000000e+00 0.000000000000000000e+00 1.477058970528010757e-16 7.423921702971265736e-15 0.000000000000000000e+00 -4.807673634469789052e-16 2.705290822506698293e-15 2.448147405887883682e-15 9.020030386799119855e-16 -1.979040400719320435e-16 0.000000000000000000e+00 8.547247986906232400e-17 4.978206996620185244e-15 0.000000000000000000e+00 -2.387742226433468355e-15 9.008673173560621447e-15 0.000000000000000000e+00 -3.230823955585454487e-16 9.284452847002315057e-15 2.448147405887883682e-15 9.020030386799119855e-16 -1.979040400719320435e-16 0.000000000000000000e+00 0.000000000000000000e+00 0.000000000000000000e+00 0.000000000000000000e+00 -5.460015783090890830e-16 9.591959833968772427e-15 0.000000000000000000e+00 -3.269057781715226498e-15 1.029111325916594003e-14 2.448147405887883682e-15 9.020030386799119855e-16 -1.979040400719320435e-16 0.000000000000000000e+00 0.000000000000000000e+00 0.000000000000000000e+00 0.000000000000000000e+00 -7.535355861372304791e-16 7.333237575505224844e-15 0.000000000000000000e+00 -3.307415154297247695e-15 1.345782220834522012e-14
4.500001049691288131e+02 2.133313932081458419e-03 3.369558977493357019e-03 -7.888383026093832504e-03 4.842574962114311495e-03 -2.642115532251110982e-02 1.109772779846899919e-02 1.647994048912419796e-02 5.223708855733152912e-02 1.991574883061804531e-03 1.262040159534959065e-02 -4.915446821751244533e-02 2.113785970972165140e-02 9.455399532482000081e-04 1.622569100251649091e-02 -1.047863852490749613e-02 1.529927740529213320e-02 6.120693260176576778e-02 2.929256059930656145e-02 6.971846726260775770e-03 -4.105834490201034498e-02 1.163214147872144999e-02 -3.686133610729891430e-03 -9.764629448138009704e-03 -2.178235707030080903e-03 1.191001113164451980e-02 1.729681479867159477e-02 -1.414264397882392978e-03 2.355792010768041189e-03 3.316032177725739515e-03 -5.059538929274501459e-04 5.667367883669156489e-03 6.247323056514972328e-03 1.353932572639120332e-04 8.249424449186660950e-04 -1.099951107147577756e-03 -2.678856016799668893e-02 -3.667124780984211407e-02 -9.098411433247251268e-03 1.630907486601483949e-02 -1.356675832604328259e-02 4.662953403752149832e-03 -1.014611775044851547e-02 -7.255368372982539706e-03 -1.595261672600006668e-04 -1.560957869745953613e-03 1.419600370061530406e-02 -7.393021278079765432e-03 1.286558570193200579e-01 -2.752501295167933057e-02 1.643872456481507982e-01 -1.349332189630539011e-02 6.024045217093525889e-03 -1.719258233212385065e-02 0.000000000000000000e+00 0.000000000000000000e+00 0.000000000000000000e+00 2.455537807067058601e-15 3.408750875361153008e-15 0.000000000000000000e+00 7.981824415506312813e-16 -3.735895089275238401e-16 0.000000000000000000e+00 -2.789347716805278868e-15 -8.276846989364601070e-16 -2.759011890237422573e-15 0.000000000000000000e+00 0.000000000000000000e+00 0.000000000000000000e+00 0.000000000000000000e+00 -2.988714188058529732e-15 -1.644380674128112260e-15 0.000000000000000000e+00 3.356849743309146615e-16 -1.540588115597464314e-15 -2.789347716805278868e-15 -8.276846989364601070e-16 -2.759011890237422573e-15 0.000000000000000000e+00 1.071453376653005637e-15 -6.988163537393299556e-15 0.000000000000000000e+00 1.363309346547161910e-15 2.615955651342815605e-15 0.000000000000000000e+00 -8.997787117113357523e-16 -2.194587073753745871e-15 -2.789347716805278868e-15 -8.276846989364601070e-16 -2.759011890237422573e-15 0.000000000000000000e+00 0.000000000000000000e+00 0.000000000000000000e+00 0.000000000000000000e+00 -1.372203133139505791e-15 -1.355897574200875271e-15 0.000000000000000000e+00 -6.394079095041915063e-16 -2.638424377545429303e-15 -2.789347716805278868e-15 -8.276846989364601070e-16 -2.759011890237422573e-15 0.000000000000000000e+00 0.000000000000000000e+00 0.000000000000000000e+00 0.000000000000000000e+00 1.125353187307990913e-15 -2.155607679899210752e-15 0.000000000000000000e+00 -2.209092844810523154e-15 -3.216070644623266554e-15 -6.954410647848726333e-03 -7.533962663023092976e-03 -2.037001110565032566e-02 2.568863938261275320e-02 -3.518757751973673742e-02 -1.468625116629319882e-02 -2.135889686820706401e-02 -1.872346929602228260e-02 -1.089585976431402606e-02 -2.136764233467029067e-02 7.744720025842827954e-03 -1.734096573148757522e-02 0.000000000000000000e+00 0.000000000000000000e+00 0.000000000000000000e+00 1.470483141015905734e-15 -4.400865418810536688e-16 0.000000000000000000e+00 6.738293224274415300e-16 1.123758294101699587e-16 0.000000000000000000e+00 4.191254301330416413e-16 -2.448763292434133344e-16 8.316972043963515024e-16 0.000000000000000000e+00 0.000000000000000000e+00 0.000000000000000000e+00 0.000000000000000000e+00 -6.428061535299782024e-17 4.214826806684713122e-15 0.000000000000000000e+00 3.679090605194384973e-16 3.937684771403536244e-15 4.191254301330416413e-16 -2.448763292434133344e-16 8.316972043963515024e-16 0.000000000000000000e+00 -8.570590041437119475e-17 2.719365433045543744e-15 0.000000000000000000e+00 -7.313784764905639638e-16 5.942799184861971823e-15 0.000000000000000000e+00 -2.091407819010909233e-16 7.305839427204228547e-15 4.191254301330416413e-16 -2.448763292434133344e-16 8.316972043963515024e-16 0.000000000000000000e+00 0.000000000000000000e+00 0.000000000000000000e+00 0.000000000000000000e+00 -1.005675984218865926e-15 4.166146463899193426e-15 0.000000000000000000e+00 -1.900542290393468335e-15 7.032407815001167335e-15 4.191254301330416413e-16 -2.448763292434133344e-16 8.316972043963515024e-16 0.000000000000000000e+00 0.000000000000000000e+00 0.000000000000000000e+00 0.000000000000000000e+00 3.636678883258032975e-16 2.518559797697850736e-15 0.000000000000000000e+00 -7.006876957852987776e-16 4.364371732640884682e-15
4.500000551287179178e+02 1.599239300232382704e-03 1.132542652521307874e-03 -1.491778830612528655e-03 8.786238420450348183e-03 -2.964975396219381512e-02 1.535459321653164823e-02 2.793924685801352226e-02 7.137803830711667019e-02 3.769918743224064898e-03 1.063051887807437215e-02 -7.532274908077767062e-02 1.063287728146066792e-02 -7.267748589667323740e-03 1.835333224975672223e-02 -2.942386073198658900e-04 2.440838741125682734e-02 6.477859789328045681e-02 2.709370778536946550e-02 4.515317745630745977e-03 -3.124637027122643615e-02 1.419567117110181846e-02 3.763645781686831508e-03 -1.723074674524461072e-02 5.657766141839875619e-03 1.004437855650421908e-02 2.204698266132888024e-02 1.588125912864558702e-04 2.719357357706828938e-03 4.723431430299991976e-03 2.972862765878059917e-03 5.074723805451587973e-03 9.203035027643861193e-03 -2.789904560133565011e-05 1.463935998771072333e-03 -6.156865333910892723e-04 -5.613814920052824509e-02 -2.433822698655075528e-02 -2.781215335489389817e-02 1.298990621263076267e-02 -1.255249273102654155e-02 9.103327749274996899e-04 -3.225743829068217390e-03 -1.818841753145669649e-02 8.882526492882659996e-03 -1.766229928168447719e-02 2.084281722550003491e-02 -1.956495910812890843e-02 1.569375783199434826e-01 -6.239292306576096903e-02 2.354205721127899387e-01 -6.949160403381201938e-03 -3.420367114602758385e-02 -6.757259957642010317e-02 0.000000000000000000e+00 0.000000000000000000e+00 0.000000000000000000e+00 3.143270000516516830e-15 1.857290807904197048e-15 0.000000000000000000e+00 -5.123058876927203828e-16 1.041248490718021969e-15 0.000000000000000000e+00 -2.104465319670821865e-15 -1.209509108634994501e-15 -7.556088665202264947e-17 0.000000000000000000e+00 0.000000000000000000e+00 0.000000000000000000e+00 0.000000000000000000e+00 -1.772508893784125418e-15 -2.463603723139055980e-15 0.000000000000000000e+00 5.963590162997417929e-16 -2.073678975198409553e-15 -2.104465319670821865e-15 -1.209509108634994501e-15 -7.556088665202264947e-17 0.000000000000000000e+00 -1.125693826939881598e-15 -5.752811269259124973e-15 0.000000000000000000e+00 1.044741790392788404e-15 2.011857206366588344e-15 0.000000000000000000e+00 -1.220918024874320148e-15 3.819641048877479516e-16 -2.104465319670821865e-15 -1.209509108634994501e-15 -7.556088665202264947e-17 0.000000000000000000e+00 0.000000000000000000e+00 0.000000000000000000e+00 0.000000000000000000e+00 -3.642105068285673150e-16 -3.580689513293577406e-15 0.000000000000000000e+00 1.076402702815012871e-15 3.016790857608155298e-15 -2.104465319670821865e-15 -1.209509108634994501e-15 -7.556088665202264947e-17 0.000000000000000000e+00 0.000000000000000000e+00 0.000000000000000000e+00 0.000000000000000000e+00 3.134611030420944837e-16 -4.555554816812483227e-15 0.000000000000000000e+00 -3.490764925455701623e-16 3.472945479132116714e-15 -6.703353169533392102e-03 3.607201606138487910e-03 -6.803771587111977215e-03 1.673758575194332285e-02 -3.572260035638506748e-02 -1.440956479345429156e-02 -3.085573138261595710e-02 1.598905299117294246e-02 2.849228648931458052e-02 6.944928084176597849e-02 -1.815138742622898413e-02 -1.439700721767318559e-01 0.000000000000000000e+00 0.000000000000000000e+00 0.000000000000000000e+00 1.691530978636974098e-15 1.065237461505375765e-15 0.000000000000000000e+00 5.121435285088668471e-16 1.175073459143683747e-15 0.000000000000000000e+00 -1.774836745633881546e-15 -1.198291834584012994e-15 1.216114295994759291e-15 0.000000000000000000e+00 0.000000000000000000e+00 0.000000000000000000e+00 0.000000000000000000e+00 -3.154177197948157226e-16 -9.987261817656869103e-16 0.000000000000000000e+00 1.155072889656648217e-15 1.647508576134493885e-15 -1.774836745633881546e-15 -1.198291834584012994e-15 1.216114295994759291e-15 0.000000000000000000e+00 -1.564981573352534409e-16 -1.047278207534953103e-15 0.000000000000000000e+00 1.052946892416650583e-15 -4.145844052035257383e-16 0.000000000000000000e+00 2.300483733351547717e-16 1.392744996808938830e-15 -1.774836745633881546e-15 -1.198291834584012994e-15 1.216114295994759291e-15 0.000000000000000000e+00 0.000000000000000000e+00 0.000000000000000000e+00 0.000000000000000000e+00 -9.763069032628955958e-16 -3.074326779373302264e-15 0.000000000000000000e+00 4.303748849526724261e-16 1.669918991634305926e-16 -1.774836745633881546e-15 -1.198291834584012994e-15 1.216114295994759291e-15 0.000000000000000000e+00 0.000000000000000000e+00 0.000000000000000000e+00 0.000000000000000000e+00 1.403372614265508262e-15 -2.801905931870540026e-15 0.000000000000000000e+00 2.202179766685579867e-15 -4.941974073313328779e-15
